# xmcd
#
# Track frame offsets: 
#        150
#        23987
#        41055
#        52295
#        68187
#        85975
#        99780
#        110505
#        127187
#        145147
#        163130
#        181070
#        198582
#        208297
#        229992
#
# Disc length: 3290 seconds
#
# Revision: 1
# Processed by: cddbd v1.5.2PL0 Copyright (c) Steve Scherf et al.
# Submitted via: ExactAudioCopyFreeDBPlugin 1.0
#
DISCID=e30cd80f
DTITLE=Norfolk Southern Lawmen - Horsin Around
DYEAR=1998
DGENRE=Country
TTITLE0=Orange Blossom Special
TTITLE1=Long Black Veil
TTITLE2=Jambalaya
TTITLE3=Livin on Love
TTITLE4=The Chair
TTITLE5=Third Rate Romance
TTITLE6=Daniel Prayed
TTITLE7=CC Rider
TTITLE8=Blue Moon of Kentucky
TTITLE9=Stuck on You
TTITLE10=The Devil Went Down to Georgia - Lonesome Fiddle Blues
TTITLE11=Stormy Monday
TTITLE12=Uncle Pen
TTITLE13=El Paso
TTITLE14=Wabash Cannonball
EXTD=
EXTT0=
EXTT1=
EXTT2=
EXTT3=
EXTT4=
EXTT5=
EXTT6=
EXTT7=
EXTT8=
EXTT9=
EXTT10=
EXTT11=
EXTT12=
EXTT13=
EXTT14=
PLAYORDER=
